<?xml version="1.0" encoding="utf-8"?>
<!-- Generator: Adobe Illustrator 27.5.0, SVG Export Plug-In . SVG Version: 6.00 Build 0)  -->
<svg version="1.1" xmlns="http://www.w3.org/2000/svg" xmlns:xlink="http://www.w3.org/1999/xlink" x="0px" y="0px"
	 viewBox="0 0 750 500" style="enable-background:new 0 0 750 500;" xml:space="preserve">
<g id="BACKGROUND">
	<g>
		<g>
			<radialGradient id="SVGID_1_" cx="170.7079" cy="-6.767" r="530.0465" gradientUnits="userSpaceOnUse">
				<stop  offset="0.0168" style="stop-color:#2E34BA"/>
				<stop  offset="0.9721" style="stop-color:#1A2246"/>
			</radialGradient>
			<rect style="fill:url(#SVGID_1_);" width="750" height="500"/>
		</g>
		<g style="opacity:0.62;">
			
				<radialGradient id="SVGID_00000137092350377864460600000017910585795282998917_" cx="814.557" cy="87.1326" r="667.3982" gradientUnits="userSpaceOnUse">
				<stop  offset="0.0168" style="stop-color:#2E34BA"/>
				<stop  offset="0.9721" style="stop-color:#1A2246"/>
			</radialGradient>
			<path style="fill:url(#SVGID_00000137092350377864460600000017910585795282998917_);" d="M382.052,135.626
				c147.233,54.482,166.161,2.994,192.182,126.844C594.32,358.073,676.015,404.11,750,395.423V0H299.648
				C286.807,37.31,283.911,99.311,382.052,135.626z"/>
			
				<radialGradient id="SVGID_00000150084479828949290160000018244722477242616207_" cx="440.2246" cy="-182.832" r="568.9735" gradientUnits="userSpaceOnUse">
				<stop  offset="0.0168" style="stop-color:#2E34BA"/>
				<stop  offset="0.9721" style="stop-color:#1A2246"/>
			</radialGradient>
			<path style="fill:url(#SVGID_00000150084479828949290160000018244722477242616207_);" d="M462.985,63.094
				c0,0-11.707,70.278,111.249,58.455C692.283,110.199,550.77,290.174,750,309.605V0H394.253
				C401.068,20.462,418.911,45.322,462.985,63.094z"/>
		</g>
		
			<radialGradient id="SVGID_00000124135328249211348030000003053681999497683098_" cx="340.3713" cy="232.7578" r="403.0315" gradientUnits="userSpaceOnUse">
			<stop  offset="0.0168" style="stop-color:#2E34BA"/>
			<stop  offset="0.9721" style="stop-color:#1A2246"/>
		</radialGradient>
		<path style="fill:url(#SVGID_00000124135328249211348030000003053681999497683098_);" d="M244.847,385.28
			c-115.485,21.354-85.545-58.423-129.353-114.027C81.775,228.456,24.567,251.537,0,264.44V500h451.866
			C431.886,382.097,343.579,367.024,244.847,385.28z"/>
		<g>
			<path style="fill:#FFFFFF;" d="M708.531,36.806v426.388H41.469V36.806H708.531 M709.531,35.806H40.469v428.388h669.061V35.806
				L709.531,35.806z"/>
		</g>
	</g>
</g>
<g id="OBJECTS">
	<g>
		<g>
			<g>
				
					<radialGradient id="SVGID_00000090990482828340891270000010620613861886923694_" cx="16.1627" cy="294.4196" r="151.0231" gradientUnits="userSpaceOnUse">
					<stop  offset="0.0112" style="stop-color:#A2FF7B"/>
					<stop  offset="0.9888" style="stop-color:#5495FC"/>
				</radialGradient>
				<path style="fill:url(#SVGID_00000090990482828340891270000010620613861886923694_);" d="M0,500h157.654
					c0,0-36.332-41.264-44.541-97.853C99.576,308.833,54.877,279.749,0,320.774V500z"/>
				
					<radialGradient id="SVGID_00000068645225602418687220000014968029044500921228_" cx="206.0761" cy="269.0432" r="235.7346" gradientUnits="userSpaceOnUse">
					<stop  offset="0.0112" style="stop-color:#A2FF7B"/>
					<stop  offset="0.9888" style="stop-color:#5495FC"/>
				</radialGradient>
				<path style="fill:url(#SVGID_00000068645225602418687220000014968029044500921228_);" d="M382.052,500
					c0-51.701-48.372-80.993-104.951-78.145c-51.423,2.589-108.928,36.495-156.385,13.051C73.512,411.588,61.219,324.32,0,370.883
					V500H382.052z"/>
			</g>
			
				<radialGradient id="SVGID_00000001654466082438510160000016631971090298123672_" cx="16.0419" cy="361.6541" r="143.3843" gradientUnits="userSpaceOnUse">
				<stop  offset="0.0112" style="stop-color:#A2FF7B"/>
				<stop  offset="0.9888" style="stop-color:#5495FC"/>
			</radialGradient>
			<path style="fill:url(#SVGID_00000001654466082438510160000016631971090298123672_);" d="M81.845,500
				C75.502,449.517,43.851,406.913,0,385.28V500H81.845z"/>
			
				<radialGradient id="SVGID_00000126299542648175325720000009118352322025862053_" cx="201.1645" cy="371.3672" r="170.7859" gradientUnits="userSpaceOnUse">
				<stop  offset="0.0112" style="stop-color:#A2FF7B"/>
				<stop  offset="0.9888" style="stop-color:#5495FC"/>
			</radialGradient>
			<path style="fill:url(#SVGID_00000126299542648175325720000009118352322025862053_);" d="M188.151,500
				c-11.738-28.582-39.845-48.71-72.658-48.71c-32.813,0-60.919,20.129-72.658,48.71H188.151z"/>
			
				<radialGradient id="SVGID_00000170244759456683033020000013048405643026255792_" cx="201.1645" cy="371.3672" r="170.7859" gradientUnits="userSpaceOnUse">
				<stop  offset="0.0112" style="stop-color:#A2FF7B"/>
				<stop  offset="0.9888" style="stop-color:#5495FC"/>
			</radialGradient>
			<path style="fill:url(#SVGID_00000170244759456683033020000013048405643026255792_);" d="M337.991,500
				c-9.971-18.859-29.782-31.712-52.599-31.712c-22.817,0-42.628,12.853-52.599,31.712H337.991z"/>
		</g>
		<g>
			<g>
				
					<radialGradient id="SVGID_00000181047221763255893230000015901545395168536709_" cx="678.6002" cy="257.5033" r="257.1415" gradientUnits="userSpaceOnUse">
					<stop  offset="0.0112" style="stop-color:#A2FF7B"/>
					<stop  offset="0.9888" style="stop-color:#5495FC"/>
				</radialGradient>
				<path style="fill:url(#SVGID_00000181047221763255893230000015901545395168536709_);" d="M486.369,0
					c0.884,17.438,6.866,43.126,31.008,63.719c33.837,28.861,93.198-12.156,133.361,33.71C690.9,143.296,644.3,271.253,750,271.253
					V0L486.369,0z"/>
			</g>
			
				<radialGradient id="SVGID_00000000219182498043038460000006973839750204707754_" cx="776.9622" cy="-53.3369" r="172.8618" gradientUnits="userSpaceOnUse">
				<stop  offset="0.0112" style="stop-color:#A2FF7B"/>
				<stop  offset="0.9888" style="stop-color:#5495FC"/>
			</radialGradient>
			<path style="fill:url(#SVGID_00000000219182498043038460000006973839750204707754_);" d="M644.3,0
				c8.192,65.197,49.068,120.218,105.7,148.157V0L644.3,0z"/>
			
				<radialGradient id="SVGID_00000090981417251314807270000012466928168610590641_" cx="627.3268" cy="-97.6236" r="143.0685" gradientUnits="userSpaceOnUse">
				<stop  offset="0.0112" style="stop-color:#A2FF7B"/>
				<stop  offset="0.9888" style="stop-color:#5495FC"/>
			</radialGradient>
			<path style="fill:url(#SVGID_00000090981417251314807270000012466928168610590641_);" d="M574.234,0
				c10.966,26.7,37.222,45.504,67.875,45.504S699.018,26.7,709.984,0L574.234,0z"/>
			
				<radialGradient id="SVGID_00000065049384117364650720000017619514649220992427_" cx="566.9359" cy="-65.4151" r="125.8301" gradientUnits="userSpaceOnUse">
				<stop  offset="0.0112" style="stop-color:#A2FF7B"/>
				<stop  offset="0.9888" style="stop-color:#5495FC"/>
			</radialGradient>
			<path style="fill:url(#SVGID_00000065049384117364650720000017619514649220992427_);" d="M444.305,0
				c7.829,19.063,26.576,32.488,48.461,32.488S533.397,19.063,541.226,0L444.305,0z"/>
			
				<radialGradient id="SVGID_00000142866322789620562990000006909299168600313256_" cx="370.1112" cy="0.6854" r="57.1126" gradientUnits="userSpaceOnUse">
				<stop  offset="0.0112" style="stop-color:#A2FF7B"/>
				<stop  offset="0.9888" style="stop-color:#5495FC"/>
			</radialGradient>
			<circle style="fill:url(#SVGID_00000142866322789620562990000006909299168600313256_);" cx="382.052" cy="35.806" r="16.102"/>
			
				<radialGradient id="SVGID_00000071518352534616503810000016468555068355617664_" cx="692.8069" cy="326.2624" r="57.1126" gradientUnits="userSpaceOnUse">
				<stop  offset="0.0112" style="stop-color:#A2FF7B"/>
				<stop  offset="0.9888" style="stop-color:#5495FC"/>
			</radialGradient>
			<circle style="fill:url(#SVGID_00000071518352534616503810000016468555068355617664_);" cx="704.748" cy="361.383" r="16.102"/>
			
				<radialGradient id="SVGID_00000106834196113040006270000007494069324907125913_" cx="402.316" cy="433.1678" r="57.1126" gradientUnits="userSpaceOnUse">
				<stop  offset="0.0112" style="stop-color:#A2FF7B"/>
				<stop  offset="0.9888" style="stop-color:#5495FC"/>
			</radialGradient>
			<circle style="fill:url(#SVGID_00000106834196113040006270000007494069324907125913_);" cx="414.257" cy="468.288" r="16.102"/>
			
				<radialGradient id="SVGID_00000098925895884119207720000010654186666046348479_" cx="145.7132" cy="370.0627" r="57.1126" gradientUnits="userSpaceOnUse">
				<stop  offset="0.0112" style="stop-color:#A2FF7B"/>
				<stop  offset="0.9888" style="stop-color:#5495FC"/>
			</radialGradient>
			<circle style="fill:url(#SVGID_00000098925895884119207720000010654186666046348479_);" cx="157.654" cy="405.183" r="16.102"/>
			
				<radialGradient id="SVGID_00000174598777824292966480000010394378479627069875_" cx="464.6715" cy="42.3993" r="28.5563" gradientUnits="userSpaceOnUse">
				<stop  offset="0.0112" style="stop-color:#A2FF7B"/>
				<stop  offset="0.9888" style="stop-color:#5495FC"/>
			</radialGradient>
			<circle style="fill:url(#SVGID_00000174598777824292966480000010394378479627069875_);" cx="470.642" cy="59.96" r="8.051"/>
			
				<radialGradient id="SVGID_00000118373001837974701890000018184725156720212373_" cx="730.7659" cy="309.8303" r="28.5563" gradientUnits="userSpaceOnUse">
				<stop  offset="0.0112" style="stop-color:#A2FF7B"/>
				<stop  offset="0.9888" style="stop-color:#5495FC"/>
			</radialGradient>
			<circle style="fill:url(#SVGID_00000118373001837974701890000018184725156720212373_);" cx="736.736" cy="327.391" r="8.051"/>
			
				<radialGradient id="SVGID_00000106134690271800806640000005438556270551912324_" cx="72.8566" cy="261.744" r="28.5563" gradientUnits="userSpaceOnUse">
				<stop  offset="0.0112" style="stop-color:#A2FF7B"/>
				<stop  offset="0.9888" style="stop-color:#5495FC"/>
			</radialGradient>
			<circle style="fill:url(#SVGID_00000106134690271800806640000005438556270551912324_);" cx="78.827" cy="279.304" r="8.051"/>
		</g>
	</g>
</g>
</svg>
